{
  "asset": {
    "version": "2.0",
    "generator": "THREE.GLTFExporter"
  },
  "scenes": [
    {
      "nodes": [
        0
      ]
    }
  ],
  "scene": 0,
  "nodes": [
    {
      "children": [
        6
      ],
      "matrix": [
        0.01,
        0,
        0,
        0,
        0,
        0.01,
        0,
        0,
        0,
        0,
        0.01,
        0,
        0,
        0,
        0,
        1
      ]
    },
    {
      "matrix": [
        3.7969627442180353e-16,
        -1.71,
        3.7969627442180353e-16,
        0,
        0,
        3.375077994860476e-16,
        1.52,
        0,
        -1.44,
        -3.1974423109204507e-16,
        7.099748146989106e-32,
        0,
        65.43008777458431,
        144.76413015880377,
        109.59038897722954,
        1
      ],
      "name": "Cylinder 6",
      "mesh": 0
    },
    {
      "matrix": [
        4.440892098500626e-16,
        -2,
        4.440892098500626e-16,
        0,
        0,
        4.440892098500626e-16,
        2,
        0,
        -2,
        -4.440892098500626e-16,
        9.860761315262648e-32,
        0,
        66.43008777458431,
        144.76413015880377,
        109.1106758688681,
        1
      ],
      "name": "Cylinder 5",
      "mesh": 1
    },
    {
      "matrix": [
        1,
        0,
        0,
        0,
        0,
        2.220446049250313e-16,
        -1,
        0,
        0,
        1,
        2.220446049250313e-16,
        0,
        0,
        0,
        0,
        1
      ],
      "name": "Rectangle",
      "mesh": 2
    },
    {
      "matrix": [
        0.7082317569428542,
        3.322366077737615e-8,
        -0.7059800127890568,
        0,
        -0.05364923673156373,
        0.9971083863348721,
        -0.0538203056363307,
        0,
        0.7039385895486612,
        0.0759925384538924,
        0.7061838260988247,
        0,
        527.074958786522,
        202.8277981435045,
        791.6189406441654,
        1
      ],
      "camera": 0
    },
    {
      "matrix": [
        1,
        0,
        0,
        0,
        0,
        1,
        0,
        0,
        0,
        0,
        1,
        0,
        0,
        1,
        0,
        1
      ],
      "name": "Default Ambient Light"
    },
    {
      "name": "Scene",
      "children": [
        1,
        2,
        3,
        4,
        5
      ]
    }
  ],
  "bufferViews": [
    {
      "buffer": 0,
      "byteOffset": 0,
      "byteLength": 3072,
      "target": 34962,
      "byteStride": 12
    },
    {
      "buffer": 0,
      "byteOffset": 3072,
      "byteLength": 3072,
      "target": 34962,
      "byteStride": 12
    },
    {
      "buffer": 0,
      "byteOffset": 6144,
      "byteLength": 1536,
      "target": 34963
    },
    {
      "buffer": 0,
      "byteOffset": 7680,
      "byteLength": 4656,
      "target": 34962,
      "byteStride": 12
    },
    {
      "buffer": 0,
      "byteOffset": 12336,
      "byteLength": 4656,
      "target": 34962,
      "byteStride": 12
    },
    {
      "buffer": 0,
      "byteOffset": 16992,
      "byteLength": 3104,
      "target": 34962,
      "byteStride": 8
    },
    {
      "buffer": 0,
      "byteOffset": 20096,
      "byteLength": 1536,
      "target": 34963
    },
    {
      "buffer": 0,
      "byteOffset": 21632,
      "byteLength": 48,
      "target": 34962,
      "byteStride": 12
    },
    {
      "buffer": 0,
      "byteOffset": 21680,
      "byteLength": 48,
      "target": 34962,
      "byteStride": 12
    },
    {
      "buffer": 0,
      "byteOffset": 21728,
      "byteLength": 32,
      "target": 34962,
      "byteStride": 8
    },
    {
      "buffer": 0,
      "byteOffset": 21760,
      "byteLength": 24,
      "target": 34963
    }
  ],
  "buffers": [
    {
      "byteLength": 21784,
      "uri": "data:application/octet-stream;base64,"
    }
  ],
  "accessors": [
    {
      "bufferView": 0,
      "componentType": 5126,
      "count": 256,
      "max": [
        70.70836639404297,
        18.76999855041504,
        70.70835876464844
      ],
      "min": [
        -70.70836639404297,
        -18.76999855041504,
        -70.70835876464844
      ],
      "type": "VEC3"
    },
    {
      "bufferView": 1,
      "componentType": 5126,
      "count": 256,
      "max": [
        0.9807853102684021,
        1,
        0.9807852506637573
      ],
      "min": [
        -0.9807853102684021,
        -1,
        -0.9807852506637573
      ],
      "type": "VEC3"
    },
    {
      "bufferView": 2,
      "componentType": 5125,
      "count": 384,
      "max": [
        255
      ],
      "min": [
        0
      ],
      "type": "SCALAR"
    },
    {
      "bufferView": 3,
      "componentType": 5126,
      "count": 388,
      "max": [
        46.894676208496094,
        12.846098899841309,
        46.894676208496094
      ],
      "min": [
        -46.894676208496094,
        -12.846098899841309,
        -46.894676208496094
      ],
      "type": "VEC3"
    },
    {
      "bufferView": 4,
      "componentType": 5126,
      "count": 388,
      "max": [
        1,
        1,
        1
      ],
      "min": [
        -1,
        -1,
        -1
      ],
      "type": "VEC3"
    },
    {
      "bufferView": 5,
      "componentType": 5126,
      "count": 388,
      "max": [
        1,
        1
      ],
      "min": [
        0,
        0
      ],
      "type": "VEC2"
    },
    {
      "bufferView": 6,
      "componentType": 5123,
      "count": 768,
      "max": [
        387
      ],
      "min": [
        0
      ],
      "type": "SCALAR"
    },
    {
      "bufferView": 7,
      "componentType": 5126,
      "count": 4,
      "max": [
        1887.121337890625,
        1301.8829345703125,
        0
      ],
      "min": [
        -1887.121337890625,
        -1301.8829345703125,
        0
      ],
      "type": "VEC3"
    },
    {
      "bufferView": 8,
      "componentType": 5126,
      "count": 4,
      "max": [
        0,
        0,
        1
      ],
      "min": [
        0,
        0,
        1
      ],
      "type": "VEC3"
    },
    {
      "bufferView": 9,
      "componentType": 5126,
      "count": 4,
      "max": [
        1,
        1
      ],
      "min": [
        0,
        0
      ],
      "type": "VEC2"
    },
    {
      "bufferView": 10,
      "componentType": 5125,
      "count": 6,
      "max": [
        3
      ],
      "min": [
        0
      ],
      "type": "SCALAR"
    }
  ],
  "meshes": [
    {
      "primitives": [
        {
          "mode": 4,
          "attributes": {
            "POSITION": 0,
            "NORMAL": 1
          },
          "extras": {
            "type": "SubdivGeometry",
            "parameters": {
              "width": 141.41673278808594,
              "height": 37.53999710083008,
              "depth": 141.41671752929688
            }
          },
          "indices": 2
        }
      ]
    },
    {
      "primitives": [
        {
          "mode": 4,
          "attributes": {
            "POSITION": 3,
            "NORMAL": 4,
            "TEXCOORD_0": 5
          },
          "extras": {
            "parameters": {
              "width": 93.78934989413186,
              "radialSegments": 64,
              "heightSegments": 1,
              "openEnded": false,
              "thetaStart": 0,
              "thetaLength": 360,
              "cornerRadius": 0,
              "cornerSegments": 8,
              "hollow": 0,
              "depth": 93.78934989413186,
              "height": 25.69219721872235,
              "radiusTop": 46.89467494706593,
              "radiusBottom": 46.89467494706593,
              "type": "CylinderGeometry"
            },
            "type": "CylinderGeometry"
          },
          "indices": 6
        }
      ]
    },
    {
      "primitives": [
        {
          "mode": 4,
          "attributes": {
            "POSITION": 7,
            "NORMAL": 8,
            "TEXCOORD_0": 9
          },
          "extras": {
            "shape": {
              "points": [
                -1887.1213345935967,
                1301.8828795948596,
                -1887.1213345935967,
                1301.8828795948596,
                -1887.1213345935967,
                1301.8828795948596,
                0,
                1887.1213345935967,
                1301.8828795948596,
                1887.1213345935967,
                1301.8828795948596,
                1887.1213345935967,
                1301.8828795948596,
                0,
                1887.1213345935967,
                -1301.8828795948596,
                1887.1213345935967,
                -1301.8828795948596,
                1887.1213345935967,
                -1301.8828795948596,
                0,
                -1887.1213345935967,
                -1301.8828795948596,
                -1887.1213345935967,
                -1301.8828795948596,
                -1887.1213345935967,
                -1301.8828795948596,
                0
              ],
              "shapeHoles": [],
              "isClosed": true,
              "roundness": 0
            },
            "parameters": {
              "width": 3774.2426691871933,
              "depth": 0,
              "cornerRadius": [
                0,
                0,
                0,
                0
              ],
              "cornerType": 0,
              "extrudeBevelSize": 0,
              "extrudeBevelSegments": 1,
              "height": 2603.765759189719,
              "type": "RectangleGeometry"
            },
            "ui": {
              "enabledIndieCorners": false
            },
            "type": "RectangleGeometry"
          },
          "indices": 10
        }
      ]
    }
  ],
  "cameras": [
    {
      "type": "perspective",
      "perspective": {
        "aspectRatio": 2.040214477211796,
        "yfov": 0.7853981633974483,
        "zfar": 100000,
        "znear": 70
      }
    }
  ]
}